<svg xmlns="http://www.w3.org/2000/svg" xmlns:xlink="http://www.w3.org/1999/xlink" id="Layer_1" x="0" y="0" version="1.1" viewBox="0 0 72 72" style="enable-background:new 0 0 72 72" xml:space="preserve"><style type="text/css">.st0{fill:#fff}.st1,.st2{fill:none;stroke:#fff;stroke-miterlimit:10}.st2{stroke-dasharray:3.0018,3.0018}</style><path d="M59.2,10.2c0.1,0.5,0,0.9-0.3,1.3l-7.6,7.3L50,27.9c-0.1,0.5-0.3,0.8-0.8,1C48.8,29,48.4,29,48,28.7l-4-3	l-9.4,9c-0.1,0.1-0.3,0.2-0.4,0.2C34,35,33.8,35,33.6,35c-0.4-0.1-0.7-0.3-0.9-0.6L12.9,2.1c-0.3-0.5-0.2-1,0-1.4	c0.1-0.2,0.3-0.4,0.6-0.5s0.5-0.1,0.7,0l44,9.1C58.7,9.4,59.1,9.7,59.2,10.2L59.2,10.2z M21.4,4.2l27.9,13l0.1-0.1	c0.1-0.1,0.1-0.1,0.1-0.2l5.9-5.6L21.4,4.2z M17.5,3.7l30.4,21.6l1-6.9L17.5,3.7z M18.3,6l15.8,25.8l8.2-7.9	c0.2-0.1,0.4-0.3,0.7-0.4L18.3,6z" class="st0"/><g><g><line x1="36" x2="36" y1="65.5" y2="63.7" class="st1"/><line x1="36" x2="36" y1="60.2" y2="40.5" class="st2"/><line x1="36" x2="36" y1="38.7" y2="36.9" class="st1"/><g><polygon points="36 71.8 39.6 62.9 36 65 32.4 62.9" class="st0"/></g></g></g></svg>