<svg xmlns="http://www.w3.org/2000/svg" xmlns:xlink="http://www.w3.org/1999/xlink" id="Layer_1" x="0" y="0" version="1.1" viewBox="0 0 72 72" style="enable-background:new 0 0 72 72" xml:space="preserve"><style type="text/css">.st0,.st1{fill:none;stroke:#fff;stroke-miterlimit:10}.st1{stroke-dasharray:3.0018,3.0018}.st2,.st3{fill:#fff}.st3{stroke:#fff}.st4{stroke-linecap:round}.st4,.st5,.st6{fill:none;stroke:#fff;stroke-width:3}.st6{fill:#fff}</style><g><g><line x1="36" x2="36" y1="65.5" y2="63.7" class="st0"/><line x1="36" x2="36" y1="60.2" y2="40.5" class="st1"/><line x1="36" x2="36" y1="38.7" y2="36.9" class="st0"/><g><polygon points="36 71.8 39.6 62.9 36 65 32.4 62.9" class="st2"/></g></g></g><g><g><g><path id="path2991_3_" d="M24.094,8.095c-0.183,0.891-1.233,1.453-2.338,1.218c-1.106-0.236-1.8-1.169-1.557-2.048 c0.243-0.879,1.282-1.381,2.328-1.159C23.572,6.33,24.277,7.204,24.094,8.095z" class="st3"/><path id="path3761_3_" d="M22.241,12.679c-3.549-0.149-6.353-2.801-6.097-5.533C16.4,4.414,19.2,2.605,22.231,2.761 s5.552,2.237,5.813,4.962c0.063,0.659-0.026,1.319-0.277,1.939" class="st4"/><path id="path2991-6_3_" d="M50.244,9.313c-1.106,0.236-2.156-0.326-2.338-1.218 c-0.183-0.891,0.522-1.766,1.568-1.989c1.046-0.223,2.085,0.28,2.328,1.159C52.044,8.144,51.35,9.078,50.244,9.313z" class="st3"/><path id="path3761-1_3_" d="M44.219,9.628c-1.012-2.57,0.658-5.335,3.46-6.422c2.801-1.087,6.054-0.237,7.543,2.115 c1.489,2.352,0.28,5.528-2.999,6.834c-0.793,0.316-1.652,0.496-2.51,0.526" class="st4"/><path id="path2991-9_3_" d="M52.556,30.77c-0.183-0.891,0.864-1.827,2.331-2.139 c1.466-0.312,2.844,0.107,3.086,0.985c0.243,0.879-0.79,1.896-2.316,2.221S52.739,31.662,52.556,30.77z" class="st3"/><path id="path3761-2_3_" d="M52.646,25.821c4.042-1.329,8.476-0.83,10.206,1.447c1.73,2.277-0.263,5.721-4.774,7.312 c-4.511,1.591-9.44,0.489-10.701-2.051c-0.305-0.614-0.387-1.275-0.256-1.942" class="st4"/><path id="path2991-6-9_3_" d="M17.113,28.631c1.466,0.312,2.513,1.248,2.331,2.139 c-0.183,0.891-1.575,1.392-3.101,1.067c-1.526-0.325-2.558-1.343-2.316-2.221C14.269,28.738,15.647,28.319,17.113,28.631z" class="st3"/><path id="path3761-1-5_3_" d="M24.885,30.624c0.51,2.756-2.823,5.061-7.612,4.67c-4.789-0.391-8.776-3.394-8.76-6.2 c0.015-2.806,3.598-4.348,7.862-3.907c1.032,0.107,2.058,0.327,3.034,0.653" class="st4"/></g><path d="M16.727,30.234c12.96-5.401,24.266-11.232,33.132-22.524" class="st5"/><path d="M55.276,30.234C42.316,24.833,31.01,19.002,22.143,7.71" class="st5"/><path d="M45.497,20.147c0.489,3.611-3.751,7.159-9.497,7.159s-9.986-3.548-9.497-7.159 c0.489-3.611,4.731-6.024,9.497-6.024S45.007,16.535,45.497,20.147z" class="st6"/></g></g></svg>