<svg xmlns="http://www.w3.org/2000/svg" xmlns:xlink="http://www.w3.org/1999/xlink" id="Layer_1" x="0" y="0" enable-background="new 36 9 216 279" version="1.1" viewBox="36 9 216 279" xml:space="preserve"><g><path fill="none" stroke="#FFF" stroke-miterlimit="10" stroke-width="8" d="M238.475,270.675c0,3.96-3.24,7.2-7.2,7.2h-174.6 c-3.96,0-7.2-3.24-7.2-7.2v-219.6c0-3.96,3.24-7.2,7.2-7.2h174.6c3.96,0,7.2,3.24,7.2,7.2V270.675z"/></g><g><rect width="28.8" height="28.8" x="84.262" y="13.95" fill="none" stroke="#FFF" stroke-miterlimit="10" stroke-width="6"/><line x1="92.141" x2="105.184" y1="28.35" y2="28.35" fill="none" stroke="#FFF" stroke-miterlimit="10" stroke-width="6"/></g><g><rect width="28.8" height="28.8" x="173.928" y="13.95" fill="none" stroke="#FFF" stroke-miterlimit="10" stroke-width="6"/><g><line x1="188.328" x2="188.328" y1="20.767" y2="35.933" fill="none" stroke="#FFF" stroke-miterlimit="10" stroke-width="6"/><line x1="181.806" x2="194.849" y1="28.35" y2="28.35" fill="none" stroke="#FFF" stroke-miterlimit="10" stroke-width="6"/></g></g><rect width="48.6" height="207" x="63" y="58.5" fill="#FFF"/><rect width="48.6" height="207" x="119.363" y="58.5" fill="#FFF"/><rect width="48.6" height="207" x="176.4" y="58.5" fill="#FFF"/></svg>