<svg xmlns="http://www.w3.org/2000/svg" xmlns:svg="http://www.w3.org/2000/svg" xmlns:xlink="http://www.w3.org/1999/xlink" id="svg3852" x="0" y="0" version="1.1" viewBox="-250 452 97.2 97.2" style="enable-background:new -250 452 97.2 97.2" xml:space="preserve"><style type="text/css">.st0{display:none}.st1{display:inline}.st2{stroke:#eb008b;stroke-width:.25;stroke-miterlimit:10}.st2,.st3,.st4{fill:none;stroke-linecap:round;stroke-linejoin:round}.st3{display:inline;stroke:#224a80;stroke-width:3;stroke-miterlimit:10}.st4{stroke-width:5}.st4,.st5,.st6{stroke:#000;stroke-miterlimit:10}.st6{stroke-width:4;stroke-linejoin:round}.st6,.st7{stroke-linecap:round}.st7,.st8{fill:none;stroke:#cb2027;stroke-width:6;stroke-miterlimit:10}</style><title id="title4758">GPS</title><g id="Layer_2_copy_4" class="st0"><g id="g3861" class="st1"><rect id="rect3863" width="56.3" height="56.3" x="-286.1" y="320.7" class="st2"/><circle id="circle3865" cx="-258" cy="348.8" r="28.2" class="st2"/></g><g id="g3867" class="st1"><rect id="rect3869" width="56.3" height="56.3" x="-221.7" y="320.7" class="st2"/><circle id="circle3871" cx="-193.5" cy="348.8" r="28.2" class="st2"/></g><g id="g3873" class="st1"><rect id="rect3875" width="56.3" height="56.3" x="-158.5" y="320.7" class="st2"/><circle id="circle3877" cx="-130.3" cy="348.8" r="28.2" class="st2"/></g></g><g id="Layer_2_copy_2" class="st0"><g id="g3905" class="st1"><rect id="rect3907" width="56.3" height="56.3" x="-286.1" y="425.3" class="st2"/><circle id="circle3909" cx="-258" cy="453.5" r="28.2" class="st2"/></g><g id="g3911" class="st1"><rect id="rect3913" width="56.3" height="56.3" x="-221.7" y="425.3" class="st2"/><circle id="circle3915" cx="-193.5" cy="453.5" r="28.2" class="st2"/></g><g id="g3917" class="st1"><rect id="rect3919" width="56.3" height="56.3" x="-158.5" y="425.3" class="st2"/><circle id="circle3921" cx="-130.3" cy="453.5" r="28.2" class="st2"/></g></g><g id="Layer_6" class="st0"><polygon id="polygon3927" points="-264.6 453.2 -269.5 453.2 -269.5 494.2 -246.6 494.2 -246.6 453.2 -251.5 453.2 -251.5 446.7 -264.6 446.7" class="st3"/></g><g><line x1="-201.8" x2="-201.9" y1="494" y2="472.4" class="st4"/><circle cx="-215.8" cy="512.5" r="4.4" class="st5"/><path d="M-226.6,496.2v32.6h50.4v-32.6H-226.6z M-215.8,521.8c-5.2,0-9.4-4.2-9.4-9.4c0-5.2,4.2-9.4,9.4-9.4 c5.2,0,9.4,4.2,9.4,9.4C-206.5,517.6-210.7,521.8-215.8,521.8z M-187,521.8c-5.2,0-9.4-4.2-9.4-9.4c0-5.2,4.2-9.4,9.4-9.4 c5.2,0,9.4,4.2,9.4,9.4C-177.6,517.6-181.8,521.8-187,521.8z" class="st6"/><circle cx="-187" cy="512.5" r="4.4" class="st5"/></g><g><line x1="-231.4" x2="-171.7" y1="530.5" y2="470.7" class="st7"/><circle cx="-201.4" cy="500.6" r="43.2" class="st8"/></g></svg>