<svg xmlns="http://www.w3.org/2000/svg" xmlns:xlink="http://www.w3.org/1999/xlink" id="Layer_1" x="0" y="0" version="1.1" viewBox="264 336 72 72" style="enable-background:new 264 336 72 72" xml:space="preserve"><style type="text/css">.st0{fill:#fff}</style><circle cx="300" cy="397.3" r="7.1" class="st0"/><path d="M300.7,388.2h-1c-2.4,0-4.4-2.2-4.4-5l-3.2-38.6c0-2.7,2-5,4.4-5h7.3c2.4,0,4.4,2.2,4.4,5l-3.1,38.6	C305,386,303.1,388.2,300.7,388.2z" class="st0"/><g><path d="M290,350.4c-8.9,1.9-17.1,6.3-23.7,12.9l5.7,5.6c5.1-5.1,11.3-8.6,18-10.4V350.4z" class="st0"/><path d="M310,350.4v8.2c6.8,1.8,13,5.3,18,10.4l5.7-5.6C327.1,356.7,318.9,352.3,310,350.4z" class="st0"/></g><g><path d="M289,370.4c-3.5,1.4-6.7,3.5-9.4,6.3l5.6,5.7c1.2-1.1,2.4-2.1,3.8-3V370.4z" class="st0"/><path d="M309,369.7v8.6c2.1,1,4.1,2.3,5.8,4l5.6-5.7C317.2,373.5,313.3,371.1,309,369.7z" class="st0"/></g></svg>