<svg xmlns="http://www.w3.org/2000/svg" xmlns:svg="http://www.w3.org/2000/svg" xmlns:xlink="http://www.w3.org/1999/xlink" id="svg3852" x="0" y="0" version="1.1" viewBox="-250 452 72 72" style="enable-background:new -250 452 72 72" xml:space="preserve"><style type="text/css">.st0{display:none}.st1{display:inline}.st2{fill:none;stroke:#eb008b;stroke-width:.25}.st2,.st3,.st4,.st5,.st6{stroke-linecap:round;stroke-linejoin:round;stroke-miterlimit:10}.st3{fill:#fff;stroke-width:1.5}.st3,.st4,.st5{stroke:#fff}.st4{stroke-width:3.9}.st4,.st5,.st6{fill:none}.st5{stroke-width:4.5}.st6{display:inline;stroke:#224a80;stroke-width:3}</style><title id="title4758">GPS</title><g id="Layer_2_copy_4" class="st0"><g id="g3861" class="st1"><rect id="rect3863" width="56.3" height="56.3" x="-286.1" y="320.7" class="st2"/><circle id="circle3865" cx="-258" cy="348.8" r="28.2" class="st2"/></g><g id="g3867" class="st1"><rect id="rect3869" width="56.3" height="56.3" x="-221.7" y="320.7" class="st2"/><circle id="circle3871" cx="-193.5" cy="348.8" r="28.2" class="st2"/></g><g id="g3873" class="st1"><rect id="rect3875" width="56.3" height="56.3" x="-158.5" y="320.7" class="st2"/><circle id="circle3877" cx="-130.3" cy="348.8" r="28.2" class="st2"/></g></g><rect id="rect3882" width="22.3" height="11.1" x="-245.5" y="497.4" class="st3" transform="matrix(-0.7071 0.7071 -0.7071 -0.7071 -44.474 1024.2881)"/><rect id="rect3884" width="22.3" height="11.1" x="-210.1" y="462" class="st3" transform="matrix(0.7071 -0.7071 0.7071 0.7071 -388.8625 -3.7341)"/><path id="path3886" d="M-230.5,471.4c-3.2,3.2-3.2,8.6,0,11.8l15.8,15.7l11.8-11.8	l-15.7-15.7C-221.9,468.2-227.2,468.2-230.5,471.4z" class="st3"/><path id="path3888" d="M-208.8,493.1c-4.3,4.3-4.3,11.4,0,15.7l15.7-15.7	C-197.4,488.8-204.5,488.8-208.8,493.1z" class="st3"/><path id="path3890" d="M-207.1,516.3c5.7,5.7,15,5.7,20.7,0c5.7-5.7,5.7-15,0-20.7" class="st4"/><path id="path3892" d="M-201.9,509.4c2.5,2.5,6.4,2.5,8.9,0c2.5-2.5,2.5-6.4,0-8.9" class="st4"/><line id="line3894" x1="-226.5" x2="-222.5" y1="495" y2="491.1" class="st5"/><line id="line3896" x1="-210.7" x2="-206.8" y1="479.3" y2="475.4" class="st5"/><g id="Layer_2_copy_2" class="st0"><g id="g3905" class="st1"><rect id="rect3907" width="56.3" height="56.3" x="-286.1" y="425.3" class="st2"/><circle id="circle3909" cx="-258" cy="453.5" r="28.2" class="st2"/></g><g id="g3911" class="st1"><rect id="rect3913" width="56.3" height="56.3" x="-221.7" y="425.3" class="st2"/><circle id="circle3915" cx="-193.5" cy="453.5" r="28.2" class="st2"/></g><g id="g3917" class="st1"><rect id="rect3919" width="56.3" height="56.3" x="-158.5" y="425.3" class="st2"/><circle id="circle3921" cx="-130.3" cy="453.5" r="28.2" class="st2"/></g></g><g id="Layer_6" class="st0"><polygon id="polygon3927" points="-264.6 453.2 -269.5 453.2 -269.5 494.2 -246.6 494.2 -246.6 453.2 -251.5 453.2 -251.5 446.7 -264.6 446.7" class="st6"/></g></svg>