<svg xmlns="http://www.w3.org/2000/svg" xmlns:svg="http://www.w3.org/2000/svg" xmlns:xlink="http://www.w3.org/1999/xlink" id="svg2" x="0" y="0" version="1.1" viewBox="214 286 72 72" style="enable-background:new 214 286 72 72" xml:space="preserve"><style type="text/css">.st0{fill:#fff;stroke:#fff}.st1{stroke-linecap:round}.st1,.st2,.st3{fill:none;stroke:#fff;stroke-width:3}.st3{fill:#fff}</style><g><path id="path2991" d="M230.5,299.3c0,1.8-1.4,3.2-3.2,3.2s-3.2-1.4-3.2-3.2s1.4-3.2,3.2-3.2S230.5,297.5,230.5,299.3z" class="st0"/><path id="path3761" d="M229.2,308.8c-5.3,1-10.4-2.4-11.4-7.6c-1-5.3,2.4-10.4,7.6-11.4c5.3-1,10.4,2.4,11.4,7.6c0.3,1.3,0.2,2.6,0,3.8" class="st1"/><path id="path2991-6" d="M272.7,302.5c-1.8,0-3.2-1.4-3.2-3.2s1.4-3.2,3.2-3.2s3.2,1.4,3.2,3.2S274.5,302.5,272.7,302.5z" class="st0"/><path id="path3761-1" d="M263.2,301.2c-1-5.3,2.4-10.4,7.6-11.4c5.3-1,10.4,2.4,11.4,7.6c1,5.3-2.4,10.4-7.6,11.4c-1.3,0.3-2.6,0.2-3.8,0" class="st1"/><path id="path2991-9" d="M269.5,344.7c0-1.8,1.4-3.2,3.2-3.2s3.2,1.4,3.2,3.2s-1.4,3.2-3.2,3.2S269.5,346.5,269.5,344.7z" class="st0"/><path id="path3761-2" d="M270.8,335.2c5.3-1,10.4,2.4,11.4,7.6c1,5.3-2.4,10.4-7.6,11.4c-5.3,1-10.4-2.4-11.4-7.6c-0.3-1.3-0.2-2.6,0-3.8" class="st1"/><path id="path2991-6-9" d="M227.3,341.5c1.8,0,3.2,1.4,3.2,3.2s-1.4,3.2-3.2,3.2s-3.2-1.4-3.2-3.2S225.5,341.5,227.3,341.5z" class="st0"/><path id="path3761-1-5" d="M236.8,342.8c1,5.3-2.4,10.4-7.6,11.4c-5.3,1-10.4-2.4-11.4-7.6c-1-5.3,2.4-10.4,7.6-11.4c1.3-0.3,2.6-0.2,3.8,0" class="st1"/></g><line x1="227.3" x2="272.7" y1="344.7" y2="299.3" class="st2"/><line x1="272.7" x2="227.3" y1="344.7" y2="299.3" class="st2"/><circle cx="250" cy="322" r="13" class="st3"/></svg>