<svg xmlns="http://www.w3.org/2000/svg" xmlns:svg="http://www.w3.org/2000/svg" xmlns:xlink="http://www.w3.org/1999/xlink" id="svg3852" x="0" y="0" version="1.1" viewBox="-250 452 72 72" style="enable-background:new -250 452 72 72" xml:space="preserve"><style type="text/css">.st0{display:none}.st1{display:inline}.st2{stroke:#eb008b;stroke-width:.25}.st2,.st3,.st4{fill:none;stroke-linecap:round;stroke-linejoin:round;stroke-miterlimit:10}.st3{display:inline;stroke:#224a80;stroke-width:3}.st4{stroke:#fff;stroke-width:5}.st5,.st6{fill:#fff}.st6{stroke:#fff;stroke-width:4;stroke-linecap:round;stroke-linejoin:round;stroke-miterlimit:10}</style><title id="title4758">GPS</title><g id="Layer_2_copy_4" class="st0"><g id="g3861" class="st1"><rect id="rect3863" width="56.3" height="56.3" x="-286.1" y="320.7" class="st2"/><circle id="circle3865" cx="-258" cy="348.8" r="28.2" class="st2"/></g><g id="g3867" class="st1"><rect id="rect3869" width="56.3" height="56.3" x="-221.7" y="320.7" class="st2"/><circle id="circle3871" cx="-193.5" cy="348.8" r="28.2" class="st2"/></g><g id="g3873" class="st1"><rect id="rect3875" width="56.3" height="56.3" x="-158.5" y="320.7" class="st2"/><circle id="circle3877" cx="-130.3" cy="348.8" r="28.2" class="st2"/></g></g><g id="Layer_2_copy_2" class="st0"><g id="g3905" class="st1"><rect id="rect3907" width="56.3" height="56.3" x="-286.1" y="425.3" class="st2"/><circle id="circle3909" cx="-258" cy="453.5" r="28.2" class="st2"/></g><g id="g3911" class="st1"><rect id="rect3913" width="56.3" height="56.3" x="-221.7" y="425.3" class="st2"/><circle id="circle3915" cx="-193.5" cy="453.5" r="28.2" class="st2"/></g><g id="g3917" class="st1"><rect id="rect3919" width="56.3" height="56.3" x="-158.5" y="425.3" class="st2"/><circle id="circle3921" cx="-130.3" cy="453.5" r="28.2" class="st2"/></g></g><g id="Layer_6" class="st0"><polygon id="polygon3927" points="-264.6 453.2 -269.5 453.2 -269.5 494.2 -246.6 494.2 -246.6 453.2 -251.5 453.2 -251.5 446.7 -264.6 446.7" class="st3"/></g><line x1="-214" x2="-214" y1="479.9" y2="459.8" class="st4"/><circle cx="-227" cy="497" r="4.1" class="st5"/><path d="M-237,481.9v30.3h46.8v-30.3H-237z M-227,505.7c-4.8,0-8.7-3.9-8.7-8.7s3.9-8.7,8.7-8.7c4.8,0,8.7,3.9,8.7,8.7	S-222.2,505.7-227,505.7z M-200.1,505.7c-4.8,0-8.7-3.9-8.7-8.7s3.9-8.7,8.7-8.7c4.8,0,8.7,3.9,8.7,8.7S-195.3,505.7-200.1,505.7z" class="st6"/><circle cx="-200.1" cy="497" r="4.1" class="st5"/></svg>