<svg xmlns="http://www.w3.org/2000/svg" xmlns:svg="http://www.w3.org/2000/svg" xmlns:xlink="http://www.w3.org/1999/xlink" id="svg3852" x="0" y="0" version="1.1" viewBox="-250 452 72 72" style="enable-background:new -250 452 72 72" xml:space="preserve"><style type="text/css">.st0{display:none}.st1{display:inline}.st2,.st3{fill:none;stroke:#eb008b;stroke-width:.25;stroke-linecap:round;stroke-linejoin:round;stroke-miterlimit:10}.st3{display:inline;stroke:#224a80;stroke-width:3}.st4,.st5{fill:#fff}.st5{opacity:.5}</style><title id="title4758">GPS</title><g id="Layer_2_copy_4" class="st0"><g id="g3861" class="st1"><rect id="rect3863" width="56.3" height="56.3" x="-286.1" y="320.7" class="st2"/><circle id="circle3865" cx="-258" cy="348.8" r="28.2" class="st2"/></g><g id="g3867" class="st1"><rect id="rect3869" width="56.3" height="56.3" x="-221.7" y="320.7" class="st2"/><circle id="circle3871" cx="-193.5" cy="348.8" r="28.2" class="st2"/></g><g id="g3873" class="st1"><rect id="rect3875" width="56.3" height="56.3" x="-158.5" y="320.7" class="st2"/><circle id="circle3877" cx="-130.3" cy="348.8" r="28.2" class="st2"/></g></g><g id="Layer_2_copy_2" class="st0"><g id="g3905" class="st1"><rect id="rect3907" width="56.3" height="56.3" x="-286.1" y="425.3" class="st2"/><circle id="circle3909" cx="-258" cy="453.5" r="28.2" class="st2"/></g><g id="g3911" class="st1"><rect id="rect3913" width="56.3" height="56.3" x="-221.7" y="425.3" class="st2"/><circle id="circle3915" cx="-193.5" cy="453.5" r="28.2" class="st2"/></g><g id="g3917" class="st1"><rect id="rect3919" width="56.3" height="56.3" x="-158.5" y="425.3" class="st2"/><circle id="circle3921" cx="-130.3" cy="453.5" r="28.2" class="st2"/></g></g><g id="Layer_6" class="st0"><polygon id="polygon3927" points="-264.6 453.2 -269.5 453.2 -269.5 494.2 -246.6 494.2 -246.6 453.2 -251.5 453.2 -251.5 446.7 -264.6 446.7" class="st3"/></g><rect width="8.6" height="14.4" x="-250" y="509.6" class="st4"/><rect width="8.6" height="28.8" x="-234.2" y="495.2" class="st4"/><rect width="8.6" height="43.2" x="-218.3" y="480.8" class="st4"/><rect width="8.6" height="57.6" x="-202.5" y="466.4" class="st4"/><rect width="8.6" height="72" x="-186.6" y="452" class="st5"/></svg>