<svg xmlns="http://www.w3.org/2000/svg" xmlns:xlink="http://www.w3.org/1999/xlink" id="Layer_1" width="72" height="72" x="0" y="0" version="1.1" viewBox="0 0 72 72" style="enable-background:new 0 0 72 72" xml:space="preserve"><style type="text/css">.st0{fill:#fff}</style><g><path d="M63.4,16H51.6l-4.6-6c-0.3-0.3-0.7-0.5-1.1-0.5H26.7c-0.4,0-0.8,0.2-1.1,0.6L21.3,16H8.6c-2.8,0-5,2.2-5,5 v36.5c0,2.8,2.2,5,5,5h54.9c2.8,0,5-2.2,5-5V21C68.4,18.3,66.2,16,63.4,16L63.4,16L63.4,16z M36.7,54.8c-8.4,0-15.3-6.9-15.3-15.3 s6.9-15.3,15.3-15.3S52,31,52,39.5S45.1,54.8,36.7,54.8L36.7,54.8L36.7,54.8z" class="st0"/></g></svg>