<svg xmlns="http://www.w3.org/2000/svg" xmlns:svg="http://www.w3.org/2000/svg" xmlns:xlink="http://www.w3.org/1999/xlink" id="svg2" width="97.454" height="98.742" version="1.1"><defs id="defs4"><linearGradient id="linearGradient3886"><stop id="stop3888" offset="0" style="stop-color:#fd8f00;stop-opacity:1"/><stop id="stop3890" offset="1" style="stop-color:#ff590f;stop-opacity:1"/></linearGradient><linearGradient id="linearGradient3870"><stop style="stop-color:#101317;stop-opacity:.67521369" id="stop3872" offset="0"/><stop style="stop-color:#000f27;stop-opacity:0" id="stop3874" offset="1"/></linearGradient><linearGradient id="linearGradient3769"><stop style="stop-color:#0b6cff;stop-opacity:1" id="stop3771" offset="0"/><stop style="stop-color:#62a1ff;stop-opacity:1" id="stop3773" offset="1"/></linearGradient><linearGradient id="linearGradient3777" x1="256.272" x2="388.647" y1="397.874" y2="397.874" gradientUnits="userSpaceOnUse" xlink:href="#linearGradient3769"/><linearGradient id="linearGradient3785" x1="309.727" x2="440.782" y1="430.484" y2="430.484" gradientUnits="userSpaceOnUse" xlink:href="#linearGradient3769"/><linearGradient id="linearGradient3793" x1="221.138" x2="317.545" y1="362.933" y2="362.933" gradientUnits="userSpaceOnUse" xlink:href="#linearGradient3769"/><linearGradient id="linearGradient3801" x1="229.164" x2="270.938" y1="462.223" y2="462.223" gradientTransform="translate(1.4347202,1.2912482)" gradientUnits="userSpaceOnUse" xlink:href="#linearGradient3769"/><linearGradient id="linearGradient3809" x1="267.682" x2="309.431" y1="478.028" y2="478.028" gradientTransform="matrix(0.9982874,0.05850016,-0.05850016,0.9982874,26.737243,-13.909849)" gradientUnits="userSpaceOnUse" xlink:href="#linearGradient3769"/><linearGradient id="linearGradient3853" x1="221.138" x2="440.782" y1="398.468" y2="398.468" gradientUnits="userSpaceOnUse" xlink:href="#linearGradient3769"/><linearGradient id="linearGradient3855" x1="221.138" x2="440.782" y1="398.468" y2="398.468" gradientUnits="userSpaceOnUse" xlink:href="#linearGradient3769"/><linearGradient id="linearGradient3857" x1="221.138" x2="440.782" y1="398.468" y2="398.468" gradientUnits="userSpaceOnUse" xlink:href="#linearGradient3769"/><linearGradient id="linearGradient3859" x1="221.138" x2="440.782" y1="398.468" y2="398.468" gradientUnits="userSpaceOnUse" xlink:href="#linearGradient3769"/><linearGradient id="linearGradient3861" x1="221.138" x2="440.782" y1="398.468" y2="398.468" gradientUnits="userSpaceOnUse" xlink:href="#linearGradient3769"/><linearGradient id="linearGradient3863" x1="221.138" x2="440.782" y1="398.468" y2="398.468" gradientUnits="userSpaceOnUse" xlink:href="#linearGradient3769"/><radialGradient id="radialGradient3876" cx="314.65" cy="521.576" r="104.718" fx="314.65" fy="521.576" gradientTransform="matrix(1,0,0,0.20616113,0,414.047)" gradientUnits="userSpaceOnUse" xlink:href="#linearGradient3870"/><radialGradient id="radialGradient3898" cx="270.872" cy="392.51" r="61.659" fx="270.872" fy="392.51" gradientTransform="matrix(1,0,0,1.8914171,0,-349.89048)" gradientUnits="userSpaceOnUse" xlink:href="#linearGradient3886"/><linearGradient id="linearGradient3906" x1="319.077" x2="438.947" y1="406.012" y2="406.012" gradientUnits="userSpaceOnUse" xlink:href="#linearGradient3886"/><linearGradient id="linearGradient3017" x1="221.138" x2="440.782" y1="398.468" y2="398.468" gradientTransform="translate(1.4888824,-1.9851766)" gradientUnits="userSpaceOnUse" xlink:href="#linearGradient3769"/></defs><metadata id="metadata7"/><g id="layer1" transform="translate(-215.72467,-301.6875)"><g id="g3926" transform="matrix(0.38944465,0,0,0.38944465,131.71185,184.19692)"><path id="path2987" d="m 232.8125,302.1875 -9.6875,21.4375 66.65625,90.96875 c -7.25015,13.5715 -14.3327,27.20023 -19.90625,38.59375 l -27.28125,-12.84375 -8.5,11.875 25.28125,25 c -0.65577,2.1993 -0.79174,3.60942 -0.3125,4 4.92138,4.0109 1.13367,1.46752 7.15625,5.28125 0.62827,0.39784 2.1212,-0.38979 4.28125,-2.03125 l 30.0625,16.125 9.125,-11.40625 -20.5625,-22.625 c 8.76527,-9.25589 19.08205,-20.76266 29.3125,-32.53125 l 103.75,28.59375 19.59375,-17.15625 -91.71875,-49 c 7.97727,-9.82795 14.02942,-17.64629 16.1875,-21.09375 9.60221,-15.33923 33.98072,-62.20143 18.1875,-69.3125 -15.79323,-7.11107 -50.73943,31.06094 -60.21875,46.59375 -1.75706,2.87912 -5.28553,8.99198 -9.8125,17.03125 l -81.59375,-67.5 z" style="fill:#000;fill-opacity:.53376202;stroke:#000;stroke-width:1px;stroke-linecap:butt;stroke-linejoin:miter;stroke-opacity:.61093247"/><path id="path3830" d="m 388.47226,426.94175 c -14.14502,20.08913 -37.17423,14.7309 -37.17423,14.7309 0,0 2.22673,-11.0706 2.30274,-11.14995 0,0 15.50452,4.19264 25.83843,-9.50522 10.33393,-13.69786 0.55137,-32.59232 0.55137,-32.59232 l 10.3275,-3.81066 c 8.45771,20.14931 5.65551,30.55726 -1.84581,42.32725 z" style="fill:#000;fill-opacity:.53376202;stroke:#000;stroke-width:.324599px;stroke-linecap:butt;stroke-linejoin:miter;stroke-opacity:1"/><text id="text3827" x="213.861" y="554.342" style="font-size:40px;font-style:normal;font-variant:normal;font-weight:600;font-stretch:normal;text-align:start;line-height:125%;letter-spacing:0;word-spacing:0;writing-mode:lr-tb;text-anchor:start;fill:#000;fill-opacity:.53697749;stroke:#000;stroke-opacity:.67845662;font-family:Open Sans;-inkscape-font-specification:Open Sans Semi-Bold" xml:space="preserve"><tspan id="tspan3829" x="213.861" y="554.342">Connect Link</tspan></text><path style="fill:#000;fill-opacity:.53376202;stroke:#000;stroke-width:.53760475px;stroke-linecap:butt;stroke-linejoin:miter;stroke-opacity:1" id="path3835" d="m 411.47403,444.9229 c -23.42715,33.27186 -61.5684,24.39749 -61.5684,24.39749 0,0 3.68793,-18.33526 3.81382,-18.46668 0,0 25.67877,6.9439 42.79392,-15.74266 17.11517,-22.68656 0.91318,-53.97979 0.91318,-53.97979 l 17.10453,-6.31125 c 14.00776,33.37152 9.36672,50.60929 -3.05705,70.10289 z"/><path id="path3837" d="m 446.80628,470.86241 c -37.66593,53.49416 -98.98904,39.22603 -98.98904,39.22603 0,0 5.92941,-29.47924 6.13182,-29.69053 0,0 41.28606,11.16433 68.80362,-25.31089 27.5176,-36.47522 1.4682,-86.78815 1.4682,-86.78815 l 27.50049,-10.14716 c 22.52153,53.65438 15.05972,81.36909 -4.91509,112.7107 z" style="fill:#000;fill-opacity:.53376202;stroke:#000;stroke-width:.86435539px;stroke-linecap:butt;stroke-linejoin:miter;stroke-opacity:1"/></g></g></svg>