<svg xmlns="http://www.w3.org/2000/svg" xmlns:svg="http://www.w3.org/2000/svg" id="Layer_1" x="0" y="0" enable-background="new -89 46 72 72" version="1.1" viewBox="-89 46 72 72" xml:space="preserve"><metadata id="metadata3771"/><defs id="defs3769"><filter style="color-interpolation-filters:sRGB" id="filter3830" width="3.548" height="3.268" x="-1.274" y="-1.134"><feBlend id="feBlend3834" in2="BackgroundImage" mode="lighten"/></filter></defs><path style="fill:#fff;stroke-width:1.1104244" id="rect3762" d="m -81.92009,46.487004 c 0.487005,-0.487004 57.353171,-0.487004 57.840175,0 0.487005,0.487005 2.055265,2.055266 2.54227,2.54227 0.487005,0.487005 0.487005,4.114447 0,4.601451 -0.487004,0.487005 -2.055265,2.055266 -2.54227,2.54227 -0.487004,0.487005 -57.35317,0.487005 -57.840175,0 -0.487004,-0.487004 -2.055265,-2.055265 -2.54227,-2.54227 -0.487004,-0.487004 -0.487004,-4.114446 10e-7,-4.601451 0.487005,-0.487005 2.055265,-2.055265 2.542269,-2.54227 z" transform="matrix(0.83070712,0,0,0.82950228,-8.6376373,16.905515)"/><path id="path3764" d="m -29.6796,62.69245 c -2.5906,-2.91145 -44.0482,-2.91145 -46.6398,0 -2.5916,2.91145 -2.5916,49.48665 0,52.3971 2.5916,2.91045 44.0492,2.91045 46.6398,0 2.5906,-2.91045 2.5906,-49.48565 0,-52.3971 z m -4.6054,45.52685 c -0.358,2.1127 -6.094,2.1127 -6.453,0 -0.359,-2.1127 -0.359,-35.9239 0,-38.0376 0.359,-2.1137 6.095,-2.1137 6.453,0 0.358,2.1137 0.358,35.9249 0,38.0376 z m -15.489,0 c -0.358,2.1127 -6.094,2.1127 -6.453,0 -0.359,-2.1127 -0.359,-35.9239 0,-38.0376 0.359,-2.1137 6.095,-2.1137 6.453,0 0.358,2.1137 0.358,35.9249 0,38.0376 z m -14.829,0 c -0.358,2.1127 -6.094,2.1127 -6.453,0 -0.359,-2.1127 -0.359,-35.9239 0,-38.0376 0.359,-2.1137 6.095,-2.1137 6.453,0 0.358,2.1137 0.358,35.9249 0,38.0376 z" style="fill:#fff;filter:url(#filter3830)" transform="matrix(1,0,0,0.76115058,0.66964846,21.432082)"/><path style="fill:#fff;stroke-width:1.1104244" id="rect3762-6" d="m -81.92009,46.487004 c 0.487005,-0.487004 57.353171,-0.487004 57.840175,0 0.487005,0.487005 2.055265,2.055266 2.54227,2.54227 0.487005,0.487005 0.487005,4.114447 0,4.601451 -0.487004,0.487005 -2.055265,2.055266 -2.54227,2.54227 -0.487004,0.487005 -57.35317,0.487005 -57.840175,0 -0.487004,-0.487004 -2.055265,-2.055265 -2.54227,-2.54227 -0.487004,-0.487004 -0.487004,-4.114446 10e-7,-4.601451 0.487005,-0.487005 2.055265,-2.055265 2.542269,-2.54227 z" transform="matrix(0.20525298,0,0,0.52828964,-41.786708,26.697818)"/></svg>