<svg xmlns="http://www.w3.org/2000/svg" xmlns:svg="http://www.w3.org/2000/svg" id="draw" width="161.994" height="305.808" x="0" y="0" enable-background="new 0 0 387.573 271.669" version="1.1" viewBox="0 0 161.994 305.808" xml:space="preserve"><metadata id="metadata19"/><title id="title2">Plane</title><path id="path11108" style="fill:#4ec3e8;stroke:#000;stroke-linecap:round;stroke-linejoin:round" d="m 50.274338,279.30496 c 0,0 -15.66603,0.669 -28.33203,26 l 59.05469,0.002 h 59.054682 c -12.667,-25.332 -28.33203,-26 -28.33203,-26 l -21.255852,-0.002 v -60.55469 c 0,-16.083 1.69956,-16.81682 2.97656,-19.04882 0.843,-1.477 27.941412,-30.73829 27.941412,-30.73829 V 59.750272 c 0,-47.25 -40.384772,-47.25781 -40.384772,-47.25781 0,0 -40.38476,0.0078 -40.38476,47.25781 V 168.96316 c 0,0 27.09845,29.26229 27.93945,30.73829 1.274,2.232 2.97852,2.96582 2.97852,19.04882 v 60.55469 z"/><g style="opacity:.8" id="g9800" transform="translate(0.00167,1.433431)"><ellipse style="fill:#159e1f" id="ellipse9798" cx="80.998" cy="132.01" rx="80.989" ry="81.006" transform="matrix(0.7091,-0.7051,0.7051,0.7091,-69.5206,95.5208)"/></g><path style="fill:#fff;stroke:#000;stroke-miterlimit:10" id="path9802" stroke-miterlimit="10" d="m 88.94267,124.54943 c -4.374,-4.384 -11.473,-4.393 -15.858,-0.02 -4.384,4.374 -4.393,11.473 -0.02,15.857 4.365,4.376 11.447,4.395 15.835,0.042 4.396,-4.335 4.446,-11.414 0.111,-15.811 -0.022,-0.022 -0.045,-0.045 -0.068,-0.068 z"/><g id="g973" transform="translate(-112.789,34.13875)"><polygon id="polygon10" stroke-miterlimit="10" points="154.731 258.153 232.841 258.153 232.841 271.153 154.731 271.169" style="fill:#159e1f;stroke:#000;stroke-miterlimit:10"/><polygon id="polygon12" stroke-miterlimit="10" points="191.395 270.987 189.395 245.32 198.228 245.32 196.228 270.987" style="fill:#159e1f;stroke:#000;stroke-miterlimit:10"/></g><ellipse style="opacity:.8;fill:#4ec3e8;stroke-width:1.18758416" id="ellipse69" cx="80.997" cy="6.069" enable-background="new" rx="35.607" ry="6.069"/><path style="opacity:1;fill:#4ec3e8;fill-opacity:1;stroke:none;stroke-width:.11511399;stroke-linejoin:round;stroke-miterlimit:4;stroke-dasharray:none;stroke-opacity:1" id="path969"/></svg>