<svg xmlns="http://www.w3.org/2000/svg" xmlns:xlink="http://www.w3.org/1999/xlink" id="draw" x="0" y="0" enable-background="new 0 0 162 331.846" version="1.1" viewBox="0 0 162 331.846" xml:space="preserve"><title>Helicopter</title><rect width="7" height="89.242" x="130.876" y="54.897" fill="#4EC3E8" stroke="#000" stroke-linecap="round" stroke-linejoin="round"/><rect width="7" height="89.242" x="23.876" y="54.897" fill="#4EC3E8" stroke="#000" stroke-linecap="round" stroke-linejoin="round"/><rect width="100" height="5" x="30.876" y="63.897" fill="#4EC3E8" stroke="#000" stroke-linecap="round" stroke-linejoin="round"/><rect width="100" height="5" x="30.876" y="130.139" fill="#4EC3E8" stroke="#000" stroke-linecap="round" stroke-linejoin="round"/><path fill="#4EC3E8" stroke="#000" stroke-linecap="round" stroke-linejoin="round" d="M86,331.346	c4.938,0,4.463-6.183,4.463-6.183v-34.2c0,0,33.037,4,39.287,4c2.055,0.213,3.892-1.281,4.105-3.335	c0.03-0.29,0.026-0.583-0.012-0.872v-14.345c0-3.343-4.093-3.093-4.093-3.093l-39.283-4v-62.562c0-16.083,1.7-16.817,2.977-19.049	c0.843-1.477,27.941-30.738,27.941-30.738V47.759C121.385,0.509,81,0.5,81,0.5S40.615,0.509,40.615,47.759v109.213	c0,0,27.1,29.262,27.941,30.738c1.274,2.232,2.977,2.966,2.977,19.049v62.562l-39.283,4c0,0-4.093-0.249-4.093,3.093v14.345	c-0.269,2.048,1.173,3.926,3.221,4.195c0.289,0.038,0.582,0.042,0.872,0.012c6.25,0,39.287-4,39.287-4v34.2	c0,0-0.475,6.183,4.463,6.183h10V331.346z"/><path fill="#FFF" stroke="#000" stroke-miterlimit="10" d="M112.67,37.076C112.67,8.407,81,8.401,81,8.401	S49.33,8.406,49.33,37.076H112.67L112.67,37.076z"/><g opacity=".8"><ellipse cx="80.998" cy="132.01" fill="#159E1F" rx="80.989" ry="81.006" transform="matrix(0.7091 -0.7051 0.7051 0.7091 -69.5206 95.5208)"/></g><path fill="#FFF" stroke="#000" stroke-miterlimit="10" d="M88.941,123.116c-4.374-4.384-11.473-4.393-15.858-0.02	c-4.384,4.374-4.393,11.473-0.02,15.857c4.365,4.376,11.447,4.395,15.835,0.042c4.396-4.335,4.446-11.414,0.111-15.811	C88.987,123.162,88.964,123.139,88.941,123.116z"/></svg>