<svg xmlns="http://www.w3.org/2000/svg" xmlns:xlink="http://www.w3.org/1999/xlink" id="draw" x="0" y="0" enable-background="new 0 0 369.157 333.567" version="1.1" viewBox="0 0 369.157 333.567" xml:space="preserve"><title>HexaRotorX</title><rect width="6.777" height="267.144" x="181.192" y="33.161" fill="#FFF" stroke="#000" stroke-miterlimit="10" transform="matrix(0.866 -0.5 0.5 0.866 -58.6372 114.6282)"/><rect width="267.161" height="6.777" x="51" y="163.344" fill="#FFF" stroke="#000" stroke-miterlimit="10"/><rect width="267.161" height="6.777" x="51" y="163.344" fill="#FFF" stroke="#000" stroke-miterlimit="10" transform="matrix(0.5 -0.866 0.866 0.5 -52.1046 243.2177)"/><path fill="#FFF" stroke="#000" stroke-miterlimit="10" d="M227.78,173.736l-36.195,36.195	c-3.869,3.869-10.141,3.869-14.009,0l-36.195-36.195c-3.869-3.869-3.869-10.141,0-14.009l36.195-36.195	c3.869-3.869,10.141-3.869,14.009,0l36.195,36.195C231.649,163.596,231.649,169.868,227.78,173.736z"/><polygon fill="#FF442B" stroke="#000" stroke-miterlimit="10" points="166.403 188.733 184.58 137.733 202.758 188.733"/><g opacity=".8"><ellipse cx="251.394" cy="51.026" fill="#4EC3E8" rx="50.993" ry="51.004" transform="matrix(0.7091 -0.7051 0.7051 0.7091 37.1586 192.1135)"/></g><path fill="#FFF" stroke="#000" stroke-miterlimit="10" d="M259.33,43.098c-4.374-4.384-11.473-4.393-15.858-0.019	c-4.384,4.374-4.393,11.473-0.019,15.858c4.365,4.375,11.447,4.394,15.835,0.042c4.397-4.335,4.446-11.414,0.111-15.811	C259.376,43.144,259.353,43.121,259.33,43.098z"/><g opacity=".8"><ellipse cx="51.002" cy="166.743" fill="#4EC3E8" rx="50.993" ry="51.004" transform="matrix(0.7091 -0.7051 0.7051 0.7091 -102.7393 84.4749)"/></g><path fill="#FFF" stroke="#000" stroke-miterlimit="10" d="M43.06,174.65c4.374,4.384,11.473,4.393,15.858,0.019	c4.384-4.374,4.393-11.473,0.019-15.858c-4.365-4.375-11.447-4.394-15.835-0.042c-4.397,4.335-4.446,11.414-0.111,15.811	C43.014,174.604,43.037,174.627,43.06,174.65z"/><g opacity=".8"><ellipse cx="117.759" cy="50.989" fill="#159E1F" rx="50.993" ry="51.004" transform="matrix(0.7051 -0.7091 0.7091 0.7051 -1.4326 98.5333)"/></g><path fill="#FFF" stroke="#000" stroke-miterlimit="10" d="M125.679,43.06c4.384,4.374,4.393,11.473,0.019,15.858	c-4.374,4.384-11.473,4.393-15.858,0.019c-4.375-4.365-4.394-11.447-0.042-15.835c4.335-4.397,11.414-4.446,15.811-0.111	C125.633,43.014,125.656,43.037,125.679,43.06z"/><g opacity=".8"><ellipse cx="251.456" cy="282.556" fill="#4EC3E8" rx="50.993" ry="51.004" transform="matrix(0.7051 -0.7091 0.7091 0.7051 -126.2072 261.6126)"/></g><path fill="#FFF" stroke="#000" stroke-miterlimit="10" d="M243.54,290.508c-4.384-4.374-4.393-11.473-0.02-15.858	c4.374-4.384,11.473-4.393,15.857-0.02c4.376,4.365,4.395,11.447,0.042,15.835c-4.335,4.397-11.414,4.446-15.811,0.111	C243.586,290.554,243.563,290.531,243.54,290.508z"/><g opacity=".8"><ellipse cx="318.157" cy="166.721" fill="#159E1F" rx="50.993" ry="51.004" transform="matrix(0.7051 -0.7091 0.7091 0.7051 -24.4052 274.7533)"/></g><path fill="#FFF" stroke="#000" stroke-miterlimit="10" d="M326.078,158.793c4.384,4.374,4.393,11.473,0.02,15.858	c-4.374,4.384-11.473,4.393-15.857,0.02c-4.376-4.365-4.395-11.447-0.042-15.835c4.335-4.397,11.414-4.446,15.811-0.111	C326.032,158.747,326.055,158.77,326.078,158.793z"/><g opacity=".8"><ellipse cx="117.759" cy="282.454" fill="#159E1F" rx="50.993" ry="51.004" transform="matrix(0.7051 -0.7091 0.7091 0.7051 -165.5563 166.7827)"/></g><path fill="#FFF" stroke="#000" stroke-miterlimit="10" d="M125.68,274.525c4.384,4.374,4.393,11.473,0.019,15.858	c-4.374,4.384-11.473,4.393-15.858,0.019c-4.375-4.365-4.394-11.447-0.042-15.835c4.335-4.397,11.414-4.446,15.811-0.111	C125.634,274.479,125.657,274.502,125.68,274.525z"/></svg>