<svg xmlns="http://www.w3.org/2000/svg" xmlns:xlink="http://www.w3.org/1999/xlink" id="draw" x="0" y="0" enable-background="new 0 0 369.161 399.857" version="1.1" viewBox="0 0 369.161 399.857" xml:space="preserve"><title>OctoRotorPlusCoaxial</title><g opacity=".8"><ellipse cx="50.997" cy="215.55" fill="#159E1F" rx="50.993" ry="51.004" transform="matrix(0.7091 -0.7051 0.7051 0.7091 -137.1567 98.6708)"/></g><g opacity=".8"><ellipse cx="184.583" cy="348.848" fill="#4EC3E8" rx="50.993" ry="51.004" transform="matrix(0.7051 -0.7091 0.7091 0.7051 -192.9302 233.7424)"/></g><g opacity=".8"><ellipse cx="318.159" cy="215.294" fill="#159E1F" rx="50.993" ry="51.004" transform="matrix(0.7091 -0.7051 0.7051 0.7091 -59.2497 286.9837)"/></g><g opacity=".8"><ellipse cx="184.699" cy="80.991" fill="#4EC3E8" rx="50.993" ry="51.004" transform="matrix(0.7051 -0.7091 0.7091 0.7051 -2.9682 154.8451)"/></g><rect width="6.777" height="267.144" x="181.192" y="51.713" fill="#FFF" stroke="#000" stroke-miterlimit="10"/><rect width="267.161" height="6.777" x="51" y="181.896" fill="#FFF" stroke="#000" stroke-miterlimit="10"/><path fill="#FFF" stroke="#000" stroke-miterlimit="10" d="M227.781,192.289l-36.195,36.195	c-3.869,3.869-10.141,3.869-14.009,0l-36.195-36.195c-3.869-3.869-3.869-10.141,0-14.009l36.195-36.195	c3.869-3.869,10.141-3.869,14.009,0l36.195,36.195C231.649,182.148,231.649,188.42,227.781,192.289z"/><polygon fill="#FF442B" stroke="#000" stroke-miterlimit="10" points="166.403 207.285 184.58 156.285 202.758 207.285"/><g opacity=".8"><ellipse cx="318.159" cy="185.294" fill="#4EC3E8" rx="50.993" ry="51.004" transform="matrix(0.7091 -0.7051 0.7051 0.7091 -38.0955 278.2556)"/></g><path fill="#FFF" stroke="#000" stroke-miterlimit="10" d="M326.101,177.367c-4.374-4.384-11.473-4.393-15.858-0.019	c-4.384,4.374-4.393,11.473-0.019,15.858c4.365,4.375,11.447,4.394,15.835,0.042c4.397-4.335,4.446-11.414,0.111-15.811	C326.147,177.413,326.124,177.39,326.101,177.367z"/><g opacity=".8"><ellipse cx="50.997" cy="185.55" fill="#4EC3E8" rx="50.993" ry="51.004" transform="matrix(0.7091 -0.7051 0.7051 0.7091 -116.0025 89.9427)"/></g><path fill="#FFF" stroke="#000" stroke-miterlimit="10" d="M43.06,193.458c4.374,4.384,11.473,4.393,15.858,0.019	c4.384-4.374,4.393-11.473,0.019-15.858c-4.365-4.375-11.447-4.394-15.835-0.042c-4.397,4.335-4.446,11.414-0.111,15.811	C43.014,193.412,43.037,193.435,43.06,193.458z"/><g opacity=".8"><ellipse cx="184.698" cy="50.991" fill="#159E1F" rx="50.993" ry="51.004" transform="matrix(0.7051 -0.7091 0.7091 0.7051 18.3037 145.9986)"/></g><path fill="#FFF" stroke="#000" stroke-miterlimit="10" d="M192.614,43.059c4.384,4.374,4.393,11.473,0.019,15.858	c-4.374,4.384-11.473,4.393-15.858,0.019c-4.375-4.365-4.394-11.447-0.042-15.835c4.335-4.397,11.414-4.446,15.811-0.111	C192.568,43.013,192.591,43.036,192.614,43.059z"/><g opacity=".8"><ellipse cx="184.583" cy="318.847" fill="#159E1F" rx="50.993" ry="51.004" transform="matrix(0.7051 -0.7091 0.7091 0.7051 -171.6581 224.8966)"/></g><path fill="#FFF" stroke="#000" stroke-miterlimit="10" d="M176.663,326.797c-4.384-4.374-4.393-11.473-0.019-15.858	c4.374-4.384,11.473-4.393,15.858-0.019c4.375,4.365,4.394,11.447,0.042,15.835c-4.335,4.397-11.414,4.446-15.811,0.111	C176.709,326.843,176.686,326.82,176.663,326.797z"/></svg>