<svg xmlns="http://www.w3.org/2000/svg" xmlns:xlink="http://www.w3.org/1999/xlink" id="draw" x="0" y="0" enable-background="new 0 0 409.161 409.857" version="1.1" viewBox="0 0 409.161 409.857" xml:space="preserve"><title>OctoRotorPlus</title><rect width="6.777" height="307.144" x="201.192" y="51.713" fill="#FFF" stroke="#000" stroke-miterlimit="10"/><rect width="307.161" height="6.777" x="50.999" y="201.896" fill="#FFF" stroke="#000" stroke-miterlimit="10"/><rect width="307.144" height="6.777" x="51.009" y="201.897" fill="#FFF" stroke="#000" stroke-miterlimit="10" transform="matrix(0.7071 -0.7071 0.7071 0.7071 -85.2384 204.7872)"/><rect width="6.777" height="307.161" x="201.192" y="51.704" fill="#FFF" stroke="#000" stroke-miterlimit="10" transform="matrix(0.7071 -0.7071 0.7071 0.7071 -85.2376 204.7867)"/><path fill="#FFF" stroke="#000" stroke-miterlimit="10" d="M247.781,212.289l-36.195,36.195	c-3.869,3.869-10.141,3.869-14.009,0l-36.195-36.195c-3.869-3.869-3.869-10.141,0-14.009l36.195-36.195	c3.869-3.869,10.141-3.869,14.009,0l36.195,36.195C251.649,202.149,251.649,208.421,247.781,212.289z"/><polygon fill="#FF442B" stroke="#000" stroke-miterlimit="10" points="186.403 227.285 204.58 176.285 222.758 227.285"/><g opacity=".8"><ellipse cx="358.165" cy="205.298" fill="#159E1F" rx="50.993" ry="51.004" transform="matrix(0.7091 -0.7051 0.7051 0.7091 -40.5618 312.2855)"/></g><path fill="#FFF" stroke="#000" stroke-miterlimit="10" d="M366.101,197.368c-4.374-4.384-11.473-4.393-15.858-0.019	c-4.384,4.374-4.393,11.473-0.019,15.858c4.365,4.375,11.447,4.394,15.835,0.042c4.397-4.335,4.446-11.414,0.111-15.811	C366.147,197.414,366.124,197.391,366.101,197.368z"/><g opacity=".8"><ellipse cx="51.003" cy="205.554" fill="#159E1F" rx="50.993" ry="51.004" transform="matrix(0.7091 -0.7051 0.7051 0.7091 -130.1058 95.767)"/></g><path fill="#FFF" stroke="#000" stroke-miterlimit="10" d="M43.059,213.455c4.374,4.384,11.473,4.393,15.858,0.019	c4.384-4.374,4.393-11.473,0.019-15.858c-4.365-4.375-11.447-4.394-15.835-0.042c-4.397,4.335-4.446,11.414-0.111,15.811	C43.013,213.409,43.036,213.432,43.059,213.455z"/><g opacity=".8"><ellipse cx="204.691" cy="50.988" fill="#159E1F" rx="50.993" ry="51.004" transform="matrix(0.7051 -0.7091 0.7091 0.7051 24.2009 160.1738)"/></g><path fill="#FFF" stroke="#000" stroke-miterlimit="10" d="M212.614,43.055c4.384,4.374,4.393,11.473,0.02,15.858	c-4.374,4.384-11.473,4.393-15.857,0.02c-4.376-4.365-4.395-11.447-0.042-15.835c4.335-4.397,11.414-4.446,15.811-0.111	C212.568,43.009,212.591,43.032,212.614,43.055z"/><g opacity=".8"><ellipse cx="204.576" cy="358.843" fill="#159E1F" rx="50.993" ry="51.004" transform="matrix(0.7051 -0.7091 0.7091 0.7051 -194.1228 250.866)"/></g><path fill="#FFF" stroke="#000" stroke-miterlimit="10" d="M196.663,366.797c-4.384-4.374-4.393-11.473-0.02-15.858	c4.374-4.384,11.473-4.393,15.857-0.02c4.376,4.365,4.395,11.447,0.042,15.835c-4.335,4.397-11.414,4.446-15.811,0.111	C196.709,366.843,196.686,366.82,196.663,366.797z"/><g opacity=".8"><ellipse cx="312.74" cy="97.142" fill="#4EC3E8" rx="50.993" ry="51.004" transform="matrix(0.7091 -0.7051 0.7051 0.7091 22.4877 248.7881)"/></g><path fill="#FFF" stroke="#000" stroke-miterlimit="10" d="M320.675,89.213c-4.374-4.384-11.473-4.393-15.858-0.019	c-4.384,4.374-4.393,11.473-0.019,15.858c4.365,4.375,11.447,4.394,15.835,0.042c4.397-4.335,4.446-11.414,0.111-15.811	C320.721,89.259,320.698,89.236,320.675,89.213z"/><g opacity=".8"><ellipse cx="97.39" cy="97.141" fill="#4EC3E8" rx="50.993" ry="51.004" transform="matrix(0.7091 -0.7051 0.7051 0.7091 -40.1643 96.9355)"/></g><path fill="#FFF" stroke="#000" stroke-miterlimit="10" d="M105.322,89.213c-4.374-4.384-11.473-4.393-15.858-0.019	c-4.384,4.374-4.393,11.473-0.019,15.858c4.365,4.375,11.447,4.394,15.835,0.042c4.397-4.335,4.446-11.414,0.111-15.811	C105.368,89.259,105.345,89.236,105.322,89.213z"/><g opacity=".8"><ellipse cx="312.741" cy="313.453" fill="#4EC3E8" rx="50.993" ry="51.004" transform="matrix(0.7091 -0.7051 0.7051 0.7091 -130.0422 311.7207)"/></g><path fill="#FFF" stroke="#000" stroke-miterlimit="10" d="M320.675,305.523c-4.374-4.384-11.473-4.393-15.858-0.019	c-4.384,4.374-4.393,11.473-0.019,15.858c4.365,4.375,11.447,4.394,15.835,0.042c4.397-4.335,4.446-11.414,0.111-15.811	C320.721,305.569,320.698,305.546,320.675,305.523z"/><g opacity=".8"><ellipse cx="96.254" cy="313.452" fill="#4EC3E8" rx="50.993" ry="51.004" transform="matrix(0.7091 -0.7051 0.7051 0.7091 -193.0249 159.0664)"/></g><path fill="#FFF" stroke="#000" stroke-miterlimit="10" d="M104.189,305.523c-4.374-4.384-11.473-4.393-15.858-0.019	c-4.384,4.374-4.393,11.473-0.019,15.858c4.365,4.375,11.447,4.394,15.835,0.042c4.397-4.335,4.446-11.414,0.111-15.811	C104.235,305.569,104.212,305.546,104.189,305.523z"/></svg>