<svg xmlns="http://www.w3.org/2000/svg" xmlns:xlink="http://www.w3.org/1999/xlink" id="draw" x="0" y="0" enable-background="new 0 0 369.157 369.144" version="1.1" viewBox="0 0 369.157 369.144" xml:space="preserve"><title>QuadRotorH</title><rect width="6.777" height="267.144" x="181.189" y="51" fill="#FFF" stroke="#000" stroke-miterlimit="10"/><rect width="267.161" height="6.777" x="50.997" y="47.611" fill="#FFF" stroke="#000" stroke-miterlimit="10"/><rect width="267.161" height="6.777" x="50.997" y="314.755" fill="#FFF" stroke="#000" stroke-miterlimit="10"/><path fill="#FFF" stroke="#000" stroke-miterlimit="10" d="M227.777,191.576l-36.195,36.195	c-3.869,3.869-10.141,3.869-14.009,0l-36.195-36.195c-3.869-3.869-3.869-10.141,0-14.009l36.195-36.195	c3.869-3.869,10.141-3.869,14.009,0l36.195,36.195C231.646,181.435,231.646,187.707,227.777,191.576z"/><polygon fill="#FF442B" stroke="#000" stroke-miterlimit="10" points="166.4 206.572 184.577 155.572 202.755 206.572"/><g opacity=".8"><ellipse cx="318.156" cy="318.151" fill="#4EC3E8" rx="50.993" ry="51.004" transform="matrix(0.7091 -0.7051 0.7051 0.7091 -131.7794 316.9061)"/></g><path fill="#FFF" stroke="#000" stroke-miterlimit="10" d="M326.098,310.226c-4.374-4.384-11.473-4.393-15.858-0.019	c-4.384,4.374-4.393,11.473-0.019,15.858c4.365,4.375,11.447,4.394,15.835,0.042c4.397-4.335,4.446-11.414,0.111-15.811	C326.144,310.272,326.121,310.249,326.098,310.226z"/><g opacity=".8"><ellipse cx="51.756" cy="51.052" fill="#4EC3E8" rx="50.993" ry="51.004" transform="matrix(0.7091 -0.7051 0.7051 0.7091 -20.9416 51.3481)"/></g><path fill="#FFF" stroke="#000" stroke-miterlimit="10" d="M43.056,58.964c4.374,4.384,11.473,4.393,15.858,0.019	c4.384-4.374,4.393-11.473,0.019-15.858c-4.365-4.375-11.447-4.394-15.835-0.042c-4.397,4.335-4.446,11.414-0.111,15.811	C43.01,58.918,43.033,58.941,43.056,58.964z"/><g opacity=".8"><ellipse cx="318.157" cy="50.993" fill="#159E1F" rx="50.993" ry="51.004" transform="matrix(0.7051 -0.7091 0.7091 0.7051 57.6535 240.6302)"/></g><path fill="#FFF" stroke="#000" stroke-miterlimit="10" d="M326.074,43.059c4.384,4.374,4.393,11.473,0.019,15.858	c-4.374,4.384-11.473,4.393-15.858,0.019c-4.375-4.365-4.394-11.447-0.042-15.835c4.335-4.397,11.414-4.446,15.811-0.111	C326.028,43.013,326.051,43.036,326.074,43.059z"/><g opacity=".8"><ellipse cx="50.998" cy="318.136" fill="#159E1F" rx="50.993" ry="51.004" transform="matrix(0.7051 -0.7091 0.7091 0.7051 -210.5423 129.9658)"/></g><path fill="#FFF" stroke="#000" stroke-miterlimit="10" d="M43.079,326.084c-4.384-4.374-4.393-11.473-0.019-15.858	c4.374-4.384,11.473-4.393,15.858-0.019c4.375,4.365,4.394,11.447,0.042,15.835c-4.335,4.397-11.414,4.446-15.811,0.111	C43.125,326.13,43.102,326.107,43.079,326.084z"/></svg>