<svg xmlns="http://www.w3.org/2000/svg" xmlns:xlink="http://www.w3.org/1999/xlink" id="draw" x="0" y="0" enable-background="new 0 0 427.045 316.059" version="1.1" viewBox="0 0 427.045 316.059" xml:space="preserve"><title>VTOLQuadRotorTailSitter</title><rect width="6.402" height="103.979" x="76.358" y="51" fill="#FFF" stroke="#000" stroke-miterlimit="10"/><rect width="6.402" height="103.979" x="76.358" y="161.081" fill="#FFF" stroke="#000" stroke-miterlimit="10"/><rect width="6.402" height="103.979" x="346.358" y="51" fill="#FFF" stroke="#000" stroke-miterlimit="10"/><rect width="6.402" height="103.979" x="346.358" y="161.081" fill="#FFF" stroke="#000" stroke-miterlimit="10"/><g opacity=".8"><ellipse cx="79.563" cy="50.993" fill="#159E1F" rx="50.993" ry="51.004" transform="matrix(0.7071 -0.7071 0.7071 0.7071 -12.7531 71.1981)"/></g><path fill="#FFF" stroke="#000" stroke-miterlimit="10" d="M71.622,58.915c-4.373-4.385-4.363-11.485,0.022-15.858	c4.385-4.373,11.485-4.363,15.858,0.022c4.364,4.376,4.364,11.459,0,15.835c-4.347,4.385-11.426,4.416-15.811,0.069	C71.668,58.961,71.645,58.938,71.622,58.915z"/><g opacity=".8"><ellipse cx="79.562" cy="265.052" fill="#4EC3E8" rx="50.993" ry="51.004" transform="matrix(0.7071 -0.7071 0.7071 0.7071 -164.1211 133.8992)"/></g><path fill="#FFF" stroke="#000" stroke-miterlimit="10" d="M87.497,257.14c4.373,4.385,4.363,11.485-0.022,15.858	c-4.385,4.373-11.485,4.363-15.858-0.022c-4.364-4.376-4.364-11.459,0-15.835c4.347-4.385,11.426-4.416,15.811-0.069	C87.451,257.094,87.474,257.117,87.497,257.14z"/><g opacity=".8"><ellipse cx="349.562" cy="50.992" fill="#4EC3E8" rx="50.993" ry="51.004" transform="matrix(0.7071 -0.7071 0.7071 0.7071 66.3348 262.1229)"/></g><path fill="#FFF" stroke="#000" stroke-miterlimit="10" d="M341.622,58.915c-4.373-4.385-4.363-11.485,0.022-15.858	c4.385-4.373,11.485-4.363,15.858,0.022c4.364,4.376,4.364,11.459,0,15.835c-4.347,4.385-11.426,4.416-15.811,0.069	C341.668,58.961,341.645,58.938,341.622,58.915z"/><g opacity=".8"><ellipse cx="349.562" cy="265.051" fill="#159E1F" rx="50.993" ry="51.004" transform="matrix(0.7071 -0.7071 0.7071 0.7071 -85.0329 324.8246)"/></g><path fill="#FFF" stroke="#000" stroke-miterlimit="10" d="M357.497,257.14c4.373,4.385,4.363,11.485-0.022,15.858	c-4.385,4.373-11.485,4.363-15.858-0.022c-4.364-4.376-4.364-11.459,0-15.835c4.347-4.385,11.426-4.416,15.811-0.069	C357.451,257.094,357.474,257.117,357.497,257.14z"/><polygon fill="#4EC3E8" stroke="#000" stroke-miterlimit="10" points=".5 164.626 .5 211.162 195.882 166.778 233.752 166.778 426.545 211.162 426.545 164.626 214.476 61.325"/><polygon fill="#159E1F" stroke="#000" stroke-miterlimit="10" points="169.83 149.586 20.5 188.244 20.5 206.619 169.83 172.696"/><polygon fill="#159E1F" stroke="#000" stroke-miterlimit="10" points="260.758 149.875 410.088 188.533 410.088 207.374 260.758 172.985"/></svg>