<svg xmlns="http://www.w3.org/2000/svg" xmlns:xlink="http://www.w3.org/1999/xlink" id="draw" x="0" y="0" enable-background="new 0 0 427.045 211.791" version="1.1" viewBox="0 0 427.045 211.791" xml:space="preserve"><title>VTOLDuoRotorTailSitter</title><rect width="6.402" height="103.979" x="76.358" y="51" fill="#FFF" stroke="#000" stroke-miterlimit="10"/><rect width="6.402" height="103.979" x="346.358" y="51" fill="#FFF" stroke="#000" stroke-miterlimit="10"/><g opacity=".8"><ellipse cx="79.564" cy="50.993" fill="#4EC3E8" rx="50.993" ry="51.004" transform="matrix(0.7071 -0.7071 0.7071 0.7071 -12.753 71.1993)"/></g><path fill="#FFF" stroke="#000" stroke-miterlimit="10" d="M71.621,58.918c-4.373-4.385-4.363-11.485,0.022-15.858	c4.385-4.373,11.485-4.363,15.858,0.022c4.364,4.376,4.364,11.459,0,15.835c-4.347,4.385-11.426,4.416-15.811,0.069	C71.667,58.964,71.644,58.941,71.621,58.918z"/><g opacity=".8"><ellipse cx="349.564" cy="50.993" fill="#159E1F" rx="50.993" ry="51.004" transform="matrix(0.7071 -0.7071 0.7071 0.7071 66.3349 262.1242)"/></g><path fill="#FFF" stroke="#000" stroke-miterlimit="10" d="M341.621,58.918c-4.373-4.385-4.363-11.485,0.022-15.858	c4.385-4.373,11.485-4.363,15.858,0.022c4.364,4.376,4.364,11.459,0,15.835c-4.347,4.385-11.426,4.416-15.811,0.069	C341.667,58.964,341.644,58.941,341.621,58.918z"/><polygon fill="#4EC3E8" stroke="#000" stroke-miterlimit="10" points=".5 164.626 .5 211.162 195.882 166.778 233.752 166.778 426.545 211.162 426.545 164.626 214.476 61.325"/><polygon fill="#159E1F" stroke="#000" stroke-miterlimit="10" points="169.83 149.586 20.5 188.244 20.5 206.619 169.83 172.696"/><polygon fill="#159E1F" stroke="#000" stroke-miterlimit="10" points="260.758 149.875 410.088 188.533 410.088 207.374 260.758 172.985"/></svg>