<svg xmlns="http://www.w3.org/2000/svg" xmlns:xlink="http://www.w3.org/1999/xlink" id="draw" x="0" y="0" enable-background="new 0 0 343.449 335.834" version="1.1" viewBox="0 0 343.449 335.834" xml:space="preserve"><title>Y6B</title><g opacity=".8"><ellipse cx="51.001" cy="80.99" fill="#4EC3E8" rx="50.993" ry="51.004" transform="matrix(0.7051 -0.7091 0.7091 0.7051 -42.389 60.0438)"/></g><g opacity=".8"><ellipse cx="171.344" cy="284.849" fill="#4EC3E8" rx="50.993" ry="51.004" transform="matrix(0.7091 -0.7051 0.7051 0.7091 -151.009 203.6939)"/></g><g opacity=".8"><ellipse cx="292.445" cy="81.565" fill="#4EC3E8" rx="50.993" ry="51.004" transform="matrix(0.7091 -0.7051 0.7051 0.7091 27.5671 229.9452)"/></g><rect width="6.777" height="133.572" x="168.017" y="120.306" fill="#FFF" stroke="#000" stroke-miterlimit="10"/><rect width="133.572" height="6.777" x="162.947" y="83.779" fill="#FFF" stroke="#000" stroke-miterlimit="10" transform="matrix(0.8697 -0.4936 0.4936 0.8697 -13.0887 124.7573)"/><rect width="6.777" height="133.692" x="110.336" y="20.065" fill="#FFF" stroke="#000" stroke-miterlimit="10" transform="matrix(0.4969 -0.8678 0.8678 0.4969 -18.2063 142.4191)"/><path fill="#FFF" stroke="#000" stroke-miterlimit="10" d="M214.837,127.079l-36.195,36.195	c-3.869,3.869-10.141,3.869-14.009,0l-36.195-36.195c-3.869-3.869-3.869-10.141,0-14.009l36.195-36.195	c3.869-3.869,10.141-3.869,14.009,0l36.195,36.195C218.706,116.938,218.706,123.21,214.837,127.079z"/><polygon fill="#FF442B" stroke="#000" stroke-miterlimit="10" points="153.46 142.074 171.637 91.074 189.815 142.074"/><g opacity=".8"><ellipse cx="292.445" cy="51.565" fill="#159E1F" rx="50.993" ry="51.004" transform="matrix(0.7091 -0.7051 0.7051 0.7091 48.7212 221.217)"/></g><path fill="#FFF" stroke="#000" stroke-miterlimit="10" d="M300.322,42.677c-4.374-4.384-11.473-4.393-15.858-0.02	c-4.384,4.374-4.393,11.473-0.02,15.857c4.365,4.376,11.447,4.395,15.835,0.042c4.397-4.335,4.446-11.414,0.111-15.811	C300.368,42.723,300.345,42.7,300.322,42.677z"/><g opacity=".8"><ellipse cx="51.001" cy="50.99" fill="#159E1F" rx="50.993" ry="51.004" transform="matrix(0.7051 -0.7091 0.7091 0.7051 -21.1168 51.1979)"/></g><path fill="#FFF" stroke="#000" stroke-miterlimit="10" d="M58.914,43.059c4.384,4.374,4.393,11.473,0.019,15.858	c-4.374,4.384-11.473,4.393-15.858,0.019c-4.375-4.365-4.394-11.447-0.042-15.835c4.335-4.397,11.414-4.446,15.811-0.111	C58.868,43.013,58.891,43.036,58.914,43.059z"/><g opacity=".8"><ellipse cx="171.344" cy="254.849" fill="#159E1F" rx="50.993" ry="51.004" transform="matrix(0.7091 -0.7051 0.7051 0.7091 -129.8548 194.9657)"/></g><path fill="#FFF" stroke="#000" stroke-miterlimit="10" d="M179.221,245.961c-4.374-4.384-11.473-4.393-15.858-0.02	s-4.393,11.473-0.02,15.858c4.365,4.375,11.447,4.394,15.835,0.042c4.397-4.335,4.446-11.414,0.111-15.811	C179.267,246.007,179.244,245.984,179.221,245.961z"/></svg>