<svg xmlns="http://www.w3.org/2000/svg" xmlns:svg="http://www.w3.org/2000/svg" id="draw" x="0" y="0" enable-background="new 0 0 343.449 305.834" version="1.1" viewBox="0 0 343.449 305.834" xml:space="preserve"><metadata id="metadata40613"/><title id="title40578">YMinus</title><g transform="translate(242.45506,0.63253)" style="opacity:.8" id="g41456"><ellipse style="fill:#4ec3e8" id="ellipse41454" cx="50.996" cy="50.988" rx="50.993" ry="51.004" transform="matrix(0.7051,-0.7091,0.7091,0.7051,-21.1175,51.1935)"/></g><rect id="rect40580" width="6.777" height="133.572" x="168.017" y="120.306" fill="#FFF" stroke="#000" stroke-miterlimit="10"/><rect id="rect40582" width="133.572" height="6.777" x="162.955" y="83.772" fill="#FFF" stroke="#000" stroke-miterlimit="10" transform="matrix(0.8697 -0.4936 0.4936 0.8697 -13.0842 124.7602)"/><rect id="rect40584" width="6.777" height="133.692" x="110.334" y="20.064" fill="#FFF" stroke="#000" stroke-miterlimit="10" transform="matrix(0.4969 -0.8678 0.8678 0.4969 -18.2066 142.4161)"/><path id="path40586" fill="#FFF" stroke="#000" stroke-miterlimit="10" d="M214.838,127.079l-36.195,36.195 c-3.869,3.869-10.141,3.869-14.009,0l-36.195-36.195c-3.869-3.869-3.869-10.141,0-14.009l36.195-36.195 c3.869-3.869,10.141-3.869,14.009,0l36.195,36.195C218.706,116.938,218.706,123.21,214.838,127.079z"/><polygon id="polygon40588" fill="#FF442B" stroke="#000" stroke-miterlimit="10" points="153.46 142.074 171.637 91.074 189.815 142.074"/><path id="path40594" fill="#FFF" stroke="#000" stroke-miterlimit="10" d="M300.324,42.677c-4.374-4.384-11.473-4.393-15.858-0.019 c-4.384,4.374-4.393,11.473-0.019,15.858c4.365,4.375,11.447,4.394,15.835,0.042c4.397-4.335,4.446-11.414,0.111-15.811 C300.37,42.723,300.347,42.7,300.324,42.677z"/><g id="g40598" opacity=".8"><ellipse id="ellipse40596" cx="50.994" cy="50.986" fill="#159E1F" rx="50.993" ry="51.004" transform="matrix(0.7051 -0.7091 0.7091 0.7051 -21.1165 51.1916)"/></g><path id="path40600" fill="#FFF" stroke="#000" stroke-miterlimit="10" d="M58.914,43.059c4.384,4.374,4.393,11.473,0.02,15.858 c-4.374,4.384-11.473,4.393-15.857,0.02c-4.376-4.365-4.395-11.447-0.042-15.835c4.335-4.397,11.414-4.446,15.811-0.111 C58.868,43.013,58.891,43.036,58.914,43.059z"/><g id="g40604" opacity=".8"><ellipse id="ellipse40602" cx="171.352" cy="254.853" fill="#159E1F" rx="50.993" ry="51.004" transform="matrix(0.7091 -0.7051 0.7051 0.7091 -129.8555 194.9725)"/></g><path id="path40606" fill="#FFF" stroke="#000" stroke-miterlimit="10" d="M179.224,245.961c-4.374-4.384-11.473-4.393-15.858-0.019 c-4.384,4.374-4.393,11.473-0.019,15.858c4.365,4.375,11.447,4.394,15.835,0.042c4.397-4.335,4.446-11.414,0.111-15.811 C179.27,246.007,179.247,245.984,179.224,245.961z"/></svg>