<svg xmlns="http://www.w3.org/2000/svg" xmlns:svg="http://www.w3.org/2000/svg" id="draw" x="0" y="0" enable-background="new 0 0 343.449 305.834" version="1.1" viewBox="0 0 343.449 305.834" xml:space="preserve"><metadata id="metadata41471"/><title id="title41436">YPlus</title><rect id="rect41438" width="6.777" height="133.572" x="168.017" y="120.306" fill="#FFF" stroke="#000" stroke-miterlimit="10"/><rect id="rect41440" width="133.572" height="6.777" x="162.951" y="83.772" fill="#FFF" stroke="#000" stroke-miterlimit="10" transform="matrix(0.8697 -0.4936 0.4936 0.8697 -13.085 124.7584)"/><rect id="rect41442" width="6.777" height="133.692" x="110.335" y="20.065" fill="#FFF" stroke="#000" stroke-miterlimit="10" transform="matrix(0.4969 -0.8678 0.8678 0.4969 -18.2066 142.4172)"/><path id="path41444" fill="#FFF" stroke="#000" stroke-miterlimit="10" d="M214.837,127.079l-36.195,36.195 c-3.869,3.869-10.141,3.869-14.009,0l-36.195-36.195c-3.869-3.869-3.869-10.141,0-14.009l36.195-36.195 c3.869-3.869,10.141-3.869,14.009,0l36.195,36.195C218.705,116.938,218.705,123.21,214.837,127.079z"/><polygon id="polygon41446" fill="#FF442B" stroke="#000" stroke-miterlimit="10" points="153.46 142.074 171.637 91.074 189.815 142.074"/><g id="g41456" opacity=".8"><ellipse id="ellipse41454" cx="50.996" cy="50.988" fill="#4EC3E8" rx="50.993" ry="51.004" transform="matrix(0.7051 -0.7091 0.7091 0.7051 -21.1175 51.1935)"/></g><path id="path41458" fill="#FFF" stroke="#000" stroke-miterlimit="10" d="M58.914,43.059c4.384,4.374,4.393,11.473,0.019,15.858 c-4.374,4.384-11.473,4.393-15.858,0.019c-4.375-4.365-4.394-11.447-0.042-15.835c4.335-4.397,11.414-4.446,15.811-0.111 C58.868,43.013,58.891,43.036,58.914,43.059z"/><g id="g41462" opacity=".8"><ellipse id="ellipse41460" cx="171.349" cy="254.85" fill="#4EC3E8" rx="50.993" ry="51.004" transform="matrix(0.7091 -0.7051 0.7051 0.7091 -129.8543 194.9702)"/></g><path id="path41464" fill="#FFF" stroke="#000" stroke-miterlimit="10" d="M179.221,245.961c-4.374-4.384-11.473-4.393-15.858-0.019 c-4.384,4.374-4.393,11.473-0.019,15.858c4.365,4.375,11.447,4.394,15.835,0.042c4.397-4.335,4.446-11.414,0.111-15.811 C179.267,246.007,179.244,245.984,179.221,245.961z"/><g transform="translate(241.37185,0.28067)" style="opacity:.8" id="g40598"><ellipse style="fill:#159e1f" id="ellipse40596" cx="50.994" cy="50.986" rx="50.993" ry="51.004" transform="matrix(0.7051,-0.7091,0.7091,0.7051,-21.1165,51.1916)"/></g><path id="path41452" stroke-miterlimit="10" d="m 300.322,42.677 c -4.374,-4.384 -11.473,-4.393 -15.858,-0.019 -4.384,4.374 -4.393,11.473 -0.019,15.858 4.365,4.375 11.447,4.394 15.835,0.042 4.397,-4.335 4.446,-11.414 0.111,-15.811 -0.023,-0.024 -0.046,-0.047 -0.069,-0.07 z" style="fill:#fff;stroke:#000;stroke-miterlimit:10"/></svg>