<svg xmlns="http://www.w3.org/2000/svg" xmlns:xlink="http://www.w3.org/1999/xlink" id="Layer_1" x="0" y="0" enable-background="new -89 46 72 72" version="1.1" viewBox="-89 46 72 72" xml:space="preserve"><path fill="none" stroke="#FF0" stroke-miterlimit="10" stroke-width="3" d="M-56.963,64.442	c-4.199,0.947-8.074,3.392-10.749,7.186c-5.728,8.125-3.785,19.355,4.339,25.083c0.007,0.005,0.014,0.009,0.022,0.014"/><g><polygon fill="#FF0" points="-59.303 88.472 -69.431 103.621 -56.794 101.11"/></g><path fill="none" stroke="#FF0" stroke-miterlimit="10" stroke-width="3" d="M-49.038,99.558	c4.199-0.947,8.074-3.392,10.749-7.186c5.728-8.125,3.785-19.355-4.339-25.083c-0.007-0.005-0.014-0.009-0.022-0.014"/><g><polygon fill="#FF0" points="-46.698 75.528 -36.57 60.379 -49.207 62.89"/></g><g><path fill="none" d="M-71.309,68.986"/></g><g><path fill="#FF0" d="M-55.822,95.415c0-1.722,1.195-2.966,2.822-2.966c1.722,0,2.822,1.244,2.822,2.966 c0,1.674-1.1,2.965-2.822,2.965C-54.674,98.379-55.822,97.088-55.822,95.415z M-54.626,88.575l-0.669-22.955h4.591l-0.669,22.955 H-54.626z"/></g></svg>