<svg xmlns="http://www.w3.org/2000/svg" xmlns:svg="http://www.w3.org/2000/svg" id="svg2" width="78.389" height="80.079" version="1.1" viewBox="0 0 78.389 80.079"><metadata id="metadata8"/><path style="stroke-width:.11996762;fill:none" id="path12" d="M 0.09494398,40.463469 V 0.92756689 L 1.7444988,1.0005818 c 2.6211635,0.1160216 5.1781695,0.2929624 6.0883569,0.4213048 0.4618754,0.065127 1.6765476,0.2290098 2.6992713,0.3641829 3.125976,0.4131596 7.301401,1.3016931 10.497167,2.2338051 11.943701,3.4836293 22.623948,9.5364434 31.611469,17.9151594 1.084676,1.0112 2.65908,2.586829 4.198867,4.202128 1.443535,1.514327 3.729238,4.282314 5.305217,6.424615 6.520629,8.863801 10.9711,18.583478 13.453719,29.382467 1.097203,4.772658 1.860941,11.297842 1.871039,15.985686 l 0.0045,2.069442 H 38.784503 0.09494398 Z M 59.545208,62.181007 c 0.363637,-0.224845 0.725417,-0.586549 0.950263,-0.95006 l 0.363075,-0.586989 0.04034,-3.089978 c 0.04862,-3.724653 -0.02427,-4.220064 -0.734291,-4.990344 -0.891002,-0.966622 0.289767,-0.884659 -15.321724,-1.063557 -7.686926,-0.08809 -14.651046,-0.163088 -15.475824,-0.166668 l -1.499595,-0.0065 -0.03537,-3.688901 c -0.01945,-2.02889 -0.05807,-4.984546 -0.08581,-6.568118 -0.02774,-1.583573 -0.08351,-6.793167 -0.123931,-11.576876 -0.08193,-9.696337 -0.0718,-9.574447 -0.859382,-10.341914 -0.810803,-0.790091 -0.954735,-0.815075 -4.69543,-0.815075 -3.735905,0 -3.850018,0.01973 -4.678787,0.808889 -0.309166,0.294389 -0.524328,0.638057 -0.620205,0.990625 -0.214493,0.788749 -0.08575,39.922882 0.133506,40.582444 0.08288,0.249301 0.338981,0.647158 0.569123,0.884128 0.847492,0.872635 0.03415,0.815036 12.495722,0.884918 6.169335,0.0346 15.21616,0.06159 20.104056,0.05998 l 8.887082,-0.0029 0.587188,-0.363075 z"/><path style="fill:none;stroke-width:.11996762" id="path14" d="M 0.09494398,40.463469 V 0.92756689 L 1.7444988,1.0005818 c 2.6211635,0.1160216 5.1781695,0.2929624 6.0883569,0.4213048 0.4618754,0.065127 1.6765476,0.2290098 2.6992713,0.3641829 3.125976,0.4131596 7.301401,1.3016931 10.497167,2.2338051 11.943701,3.4836293 22.623948,9.5364434 31.611469,17.9151594 1.084676,1.0112 2.65908,2.586829 4.198867,4.202128 1.443535,1.514327 3.729238,4.282314 5.305217,6.424615 6.520629,8.863801 10.9711,18.583478 13.453719,29.382467 1.097203,4.772658 1.860941,11.297842 1.871039,15.985686 l 0.0045,2.069442 H 38.784503 0.09494398 Z M 59.545208,62.181007 c 0.363637,-0.224845 0.725417,-0.586549 0.950263,-0.95006 l 0.363075,-0.586989 0.04034,-3.089978 c 0.04862,-3.724653 -0.02427,-4.220064 -0.734291,-4.990344 -0.891002,-0.966622 0.289767,-0.884659 -15.321724,-1.063557 -7.686926,-0.08809 -14.651046,-0.163088 -15.475824,-0.166668 l -1.499595,-0.0065 -0.03537,-3.688901 c -0.01945,-2.02889 -0.05807,-4.984546 -0.08581,-6.568118 -0.02774,-1.583573 -0.08351,-6.793167 -0.123931,-11.576876 -0.08193,-9.696337 -0.0718,-9.574447 -0.859382,-10.341914 -0.810803,-0.790091 -0.954735,-0.815075 -4.69543,-0.815075 -3.735905,0 -3.850018,0.01973 -4.678787,0.808889 -0.309166,0.294389 -0.524328,0.638057 -0.620205,0.990625 -0.214493,0.788749 -0.08575,39.922882 0.133506,40.582444 0.08288,0.249301 0.338981,0.647158 0.569123,0.884128 0.847492,0.872635 0.03415,0.815036 12.495722,0.884918 6.169335,0.0346 15.21616,0.06159 20.104056,0.05998 l 8.887082,-0.0029 0.587188,-0.363075 z"/><path id="path2" d="M -0.00690656,1.0194242 V 80.091229 H 78.351378 c 0,-43.70584 -35.046831,-79.0718048 -78.35828456,-79.0718048 z" style="opacity:.5;stroke-width:1.09325325"/><polyline transform="matrix(0.82528393,0,0,0.64905228,0.94504266,30.699404)" style="fill:none;stroke:#fff;stroke-width:7;stroke-linecap:round;stroke-linejoin:round;stroke-miterlimit:10" id="polyline34" stroke-miterlimit="10" points="26.424 7.552 10 36 26.424 64.448"/><polyline transform="matrix(0.82528393,0,0,0.64905228,0.94504266,30.699404)" style="fill:none;stroke:#fff;stroke-width:7;stroke-linecap:round;stroke-linejoin:round;stroke-miterlimit:10" id="polyline36" stroke-miterlimit="10" points="45.212 7.552 28.788 36 45.212 64.448"/><polyline transform="matrix(0.82528393,0,0,0.64905228,0.94504266,30.699404)" style="fill:none;stroke:#fff;stroke-width:7;stroke-linecap:round;stroke-linejoin:round;stroke-miterlimit:10" id="polyline38" stroke-miterlimit="10" points="64 7.552 47.576 36 64 64.448"/></svg>